<svg fill="#fff" version="1.1" id="Layer_1" xmlns="http://www.w3.org/2000/svg" xmlns:xlink="http://www.w3.org/1999/xlink" x="0px" y="0px"
	 width="841.889px" height="595.281px" viewBox="0 0 841.889 595.281" enable-background="new 0 0 841.889 595.281"
	 xml:space="preserve">
<g>
	<g>
		<path d="M643.707,321.013l-44.31,60.261h101.026v74.441c-23.927,17.724-57.603,30.131-94.823,30.131
			c-80.644,0-133.816-60.262-133.816-140.906v-0.886c0-75.327,54.944-139.134,127.613-139.134
			c50.514,0,79.758,15.951,110.774,42.537l44.311-52.285c-40.766-34.562-82.417-54.059-151.54-54.059
			c-66.465,0-122.296,29.245-158.63,74.441l-31.017-72.669h-81.53L160.729,546.108V226.189h122.296l34.562-81.53H-75v81.53H71.223
			v321.69h177.24l23.041-57.603L316.7,378.616l0,0l53.172-131.158l29.244,71.783c-0.886,7.976-1.772,16.838-1.772,24.813v0.886
			c0,115.206,81.53,203.826,204.712,203.826c70.01,0,125.841-28.358,164.833-61.147V321.013H643.707z"/>
	</g>
</g>
</svg>
